<svg xmlns="http://www.w3.org/2000/svg" viewBox="0 0 320 320" width="64" height="64" preserveAspectRatio="xMinYMid meet">
    <path fill="#cf5c36" d="M0,256L6.2,245.3C12.3,235,25,213,37,224C49.2,235,62,277,74,261.3C86.2,245,98,171,111,170.7C123.1,171,135,245,148,245.3C160,245,172,171,185,138.7C196.9,107,209,117,222,149.3C233.8,181,246,235,258,218.7C270.8,203,283,117,295,117.3C307.7,117,320,203,332,218.7C344.6,235,357,181,369,138.7C381.5,96,394,64,406,96C418.5,128,431,224,443,256C455.4,288,468,256,480,224C492.3,192,505,160,517,144C529.2,128,542,128,554,112C566.2,96,578,64,591,80C603.1,96,615,160,628,176C640,192,652,160,665,165.3C676.9,171,689,213,702,240C713.8,267,726,277,738,282.7C750.8,288,763,288,775,277.3C787.7,267,800,245,812,202.7C824.6,160,837,96,849,85.3C861.5,75,874,117,886,144C898.5,171,911,181,923,160C935.4,139,948,85,960,106.7C972.3,128,985,224,997,272C1009.2,320,1022,320,1034,277.3C1046.2,235,1058,149,1071,149.3C1083.1,149,1095,235,1108,256C1120,277,1132,235,1145,208C1156.9,181,1169,171,1182,138.7C1193.8,107,1206,53,1218,48C1230.8,43,1243,85,1255,117.3C1267.7,149,1280,171,1292,202.7C1304.6,235,1317,277,1329,282.7C1341.5,288,1354,256,1366,202.7C1378.5,149,1391,75,1403,48C1415.4,21,1428,43,1434,53.3L1440,64L1440,0L1433.8,0C1427.7,0,1415,0,1403,0C1390.8,0,1378,0,1366,0C1353.8,0,1342,0,1329,0C1316.9,0,1305,0,1292,0C1280,0,1268,0,1255,0C1243.1,0,1231,0,1218,0C1206.2,0,1194,0,1182,0C1169.2,0,1157,0,1145,0C1132.3,0,1120,0,1108,0C1095.4,0,1083,0,1071,0C1058.5,0,1046,0,1034,0C1021.5,0,1009,0,997,0C984.6,0,972,0,960,0C947.7,0,935,0,923,0C910.8,0,898,0,886,0C873.8,0,862,0,849,0C836.9,0,825,0,812,0C800,0,788,0,775,0C763.1,0,751,0,738,0C726.2,0,714,0,702,0C689.2,0,677,0,665,0C652.3,0,640,0,628,0C615.4,0,603,0,591,0C578.5,0,566,0,554,0C541.5,0,529,0,517,0C504.6,0,492,0,480,0C467.7,0,455,0,443,0C430.8,0,418,0,406,0C393.8,0,382,0,369,0C356.9,0,345,0,332,0C320,0,308,0,295,0C283.1,0,271,0,258,0C246.2,0,234,0,222,0C209.2,0,197,0,185,0C172.3,0,160,0,148,0C135.4,0,123,0,111,0C98.5,0,86,0,74,0C61.5,0,49,0,37,0C24.6,0,12,0,6,0L0,0Z"></path>
</svg>